<mxfile host="Electron" modified="2023-06-20T11:25:24.058Z" agent="Mozilla/5.0 (Windows NT 10.0; Win64; x64) AppleWebKit/537.36 (KHTML, like Gecko) draw.io/21.3.7 Chrome/112.0.5615.204 Electron/24.5.0 Safari/537.36" etag="PHOig2_4m0BuUan56zBk" version="21.3.7" type="device">
  <diagram name="第 1 页" id="JifG002cQcJoVZKPWcJV">
    <mxGraphModel dx="3507" dy="1578" grid="1" gridSize="10" guides="1" tooltips="1" connect="1" arrows="1" fold="1" page="1" pageScale="1" pageWidth="827" pageHeight="1169" math="0" shadow="0">
      <root>
        <mxCell id="0" />
        <mxCell id="1" parent="0" />
        <mxCell id="-iXSCHGIiRlSGUEFT169-49" style="rounded=0;orthogonalLoop=1;jettySize=auto;html=1;entryX=1;entryY=1;entryDx=0;entryDy=0;endArrow=none;endFill=0;" parent="1" source="-iXSCHGIiRlSGUEFT169-1" target="-iXSCHGIiRlSGUEFT169-12" edge="1">
          <mxGeometry relative="1" as="geometry" />
        </mxCell>
        <mxCell id="-iXSCHGIiRlSGUEFT169-50" style="rounded=0;orthogonalLoop=1;jettySize=auto;html=1;entryX=0.5;entryY=1;entryDx=0;entryDy=0;endArrow=none;endFill=0;" parent="1" source="-iXSCHGIiRlSGUEFT169-1" target="-iXSCHGIiRlSGUEFT169-13" edge="1">
          <mxGeometry relative="1" as="geometry" />
        </mxCell>
        <mxCell id="-iXSCHGIiRlSGUEFT169-51" style="rounded=0;orthogonalLoop=1;jettySize=auto;html=1;entryX=0;entryY=1;entryDx=0;entryDy=0;endArrow=none;endFill=0;" parent="1" source="-iXSCHGIiRlSGUEFT169-1" target="-iXSCHGIiRlSGUEFT169-14" edge="1">
          <mxGeometry relative="1" as="geometry" />
        </mxCell>
        <mxCell id="-iXSCHGIiRlSGUEFT169-93" style="edgeStyle=orthogonalEdgeStyle;rounded=0;orthogonalLoop=1;jettySize=auto;html=1;entryX=0.5;entryY=0;entryDx=0;entryDy=0;endArrow=none;endFill=0;" parent="1" source="-iXSCHGIiRlSGUEFT169-1" target="-iXSCHGIiRlSGUEFT169-92" edge="1">
          <mxGeometry relative="1" as="geometry" />
        </mxCell>
        <mxCell id="-iXSCHGIiRlSGUEFT169-117" style="edgeStyle=orthogonalEdgeStyle;rounded=0;orthogonalLoop=1;jettySize=auto;html=1;entryX=0;entryY=0.5;entryDx=0;entryDy=0;endArrow=none;endFill=0;" parent="1" source="-iXSCHGIiRlSGUEFT169-1" target="-iXSCHGIiRlSGUEFT169-116" edge="1">
          <mxGeometry relative="1" as="geometry" />
        </mxCell>
        <mxCell id="AFXOpCJbTRXEaFPnQrDW-2" style="edgeStyle=orthogonalEdgeStyle;rounded=0;orthogonalLoop=1;jettySize=auto;html=1;entryX=1;entryY=0.5;entryDx=0;entryDy=0;endArrow=none;endFill=0;" parent="1" source="-iXSCHGIiRlSGUEFT169-1" target="AFXOpCJbTRXEaFPnQrDW-1" edge="1">
          <mxGeometry relative="1" as="geometry" />
        </mxCell>
        <mxCell id="-iXSCHGIiRlSGUEFT169-1" value="&lt;font style=&quot;font-size: 16px;&quot;&gt;学院&lt;/font&gt;" style="rounded=0;html=1;" parent="1" vertex="1">
          <mxGeometry x="320" y="180" width="120" height="60" as="geometry" />
        </mxCell>
        <mxCell id="-iXSCHGIiRlSGUEFT169-54" style="rounded=0;orthogonalLoop=1;jettySize=auto;html=1;entryX=0.914;entryY=0.75;entryDx=0;entryDy=0;entryPerimeter=0;endArrow=none;endFill=0;" parent="1" source="-iXSCHGIiRlSGUEFT169-2" target="-iXSCHGIiRlSGUEFT169-15" edge="1">
          <mxGeometry relative="1" as="geometry" />
        </mxCell>
        <mxCell id="-iXSCHGIiRlSGUEFT169-55" style="rounded=0;orthogonalLoop=1;jettySize=auto;html=1;entryX=1;entryY=0.5;entryDx=0;entryDy=0;endArrow=none;endFill=0;" parent="1" source="-iXSCHGIiRlSGUEFT169-2" target="-iXSCHGIiRlSGUEFT169-16" edge="1">
          <mxGeometry relative="1" as="geometry" />
        </mxCell>
        <mxCell id="-iXSCHGIiRlSGUEFT169-56" style="rounded=0;orthogonalLoop=1;jettySize=auto;html=1;entryX=1;entryY=0.5;entryDx=0;entryDy=0;strokeColor=default;endArrow=none;endFill=0;" parent="1" source="-iXSCHGIiRlSGUEFT169-2" target="-iXSCHGIiRlSGUEFT169-17" edge="1">
          <mxGeometry relative="1" as="geometry" />
        </mxCell>
        <mxCell id="-iXSCHGIiRlSGUEFT169-96" style="edgeStyle=orthogonalEdgeStyle;rounded=0;orthogonalLoop=1;jettySize=auto;html=1;entryX=0.5;entryY=0;entryDx=0;entryDy=0;endArrow=none;endFill=0;" parent="1" source="-iXSCHGIiRlSGUEFT169-2" target="-iXSCHGIiRlSGUEFT169-95" edge="1">
          <mxGeometry relative="1" as="geometry" />
        </mxCell>
        <mxCell id="-iXSCHGIiRlSGUEFT169-127" style="edgeStyle=orthogonalEdgeStyle;rounded=0;orthogonalLoop=1;jettySize=auto;html=1;entryX=0;entryY=0.5;entryDx=0;entryDy=0;endArrow=none;endFill=0;" parent="1" source="-iXSCHGIiRlSGUEFT169-2" target="-iXSCHGIiRlSGUEFT169-126" edge="1">
          <mxGeometry relative="1" as="geometry" />
        </mxCell>
        <mxCell id="-iXSCHGIiRlSGUEFT169-2" value="&lt;font style=&quot;font-size: 16px;&quot;&gt;专业&lt;/font&gt;" style="rounded=0;html=1;" parent="1" vertex="1">
          <mxGeometry x="320" y="560" width="120" height="60" as="geometry" />
        </mxCell>
        <mxCell id="-iXSCHGIiRlSGUEFT169-58" style="rounded=0;orthogonalLoop=1;jettySize=auto;html=1;entryX=1;entryY=1;entryDx=0;entryDy=0;endArrow=none;endFill=0;exitX=0;exitY=0;exitDx=0;exitDy=0;" parent="1" source="-iXSCHGIiRlSGUEFT169-3" target="-iXSCHGIiRlSGUEFT169-19" edge="1">
          <mxGeometry relative="1" as="geometry" />
        </mxCell>
        <mxCell id="-iXSCHGIiRlSGUEFT169-61" style="rounded=0;orthogonalLoop=1;jettySize=auto;html=1;entryX=1;entryY=0.5;entryDx=0;entryDy=0;endArrow=none;endFill=0;" parent="1" source="-iXSCHGIiRlSGUEFT169-3" target="-iXSCHGIiRlSGUEFT169-20" edge="1">
          <mxGeometry relative="1" as="geometry" />
        </mxCell>
        <mxCell id="-iXSCHGIiRlSGUEFT169-62" style="rounded=0;orthogonalLoop=1;jettySize=auto;html=1;entryX=0.922;entryY=0.267;entryDx=0;entryDy=0;entryPerimeter=0;endArrow=none;endFill=0;exitX=0;exitY=1;exitDx=0;exitDy=0;" parent="1" source="-iXSCHGIiRlSGUEFT169-3" target="-iXSCHGIiRlSGUEFT169-22" edge="1">
          <mxGeometry relative="1" as="geometry" />
        </mxCell>
        <mxCell id="-iXSCHGIiRlSGUEFT169-99" style="edgeStyle=orthogonalEdgeStyle;rounded=0;orthogonalLoop=1;jettySize=auto;html=1;entryX=0;entryY=0.5;entryDx=0;entryDy=0;endArrow=none;endFill=0;" parent="1" source="-iXSCHGIiRlSGUEFT169-3" target="-iXSCHGIiRlSGUEFT169-98" edge="1">
          <mxGeometry relative="1" as="geometry" />
        </mxCell>
        <mxCell id="-iXSCHGIiRlSGUEFT169-102" style="edgeStyle=orthogonalEdgeStyle;rounded=0;orthogonalLoop=1;jettySize=auto;html=1;entryX=0.5;entryY=0;entryDx=0;entryDy=0;endArrow=none;endFill=0;" parent="1" source="-iXSCHGIiRlSGUEFT169-3" target="-iXSCHGIiRlSGUEFT169-101" edge="1">
          <mxGeometry relative="1" as="geometry" />
        </mxCell>
        <mxCell id="-iXSCHGIiRlSGUEFT169-3" value="&lt;font style=&quot;font-size: 16px;&quot;&gt;班级&lt;/font&gt;" style="rounded=0;html=1;" parent="1" vertex="1">
          <mxGeometry x="320" y="980" width="120" height="60" as="geometry" />
        </mxCell>
        <mxCell id="-iXSCHGIiRlSGUEFT169-67" style="rounded=0;orthogonalLoop=1;jettySize=auto;html=1;entryX=1;entryY=1;entryDx=0;entryDy=0;endArrow=none;endFill=0;exitX=0;exitY=0;exitDx=0;exitDy=0;exitPerimeter=0;" parent="1" source="-iXSCHGIiRlSGUEFT169-4" target="-iXSCHGIiRlSGUEFT169-27" edge="1">
          <mxGeometry relative="1" as="geometry" />
        </mxCell>
        <mxCell id="-iXSCHGIiRlSGUEFT169-68" style="rounded=0;orthogonalLoop=1;jettySize=auto;html=1;entryX=1;entryY=0;entryDx=0;entryDy=0;endArrow=none;endFill=0;exitX=0;exitY=1;exitDx=0;exitDy=0;" parent="1" source="-iXSCHGIiRlSGUEFT169-4" target="-iXSCHGIiRlSGUEFT169-28" edge="1">
          <mxGeometry relative="1" as="geometry" />
        </mxCell>
        <mxCell id="-iXSCHGIiRlSGUEFT169-69" style="rounded=0;orthogonalLoop=1;jettySize=auto;html=1;entryX=0;entryY=1;entryDx=0;entryDy=0;endArrow=none;endFill=0;exitX=1;exitY=0;exitDx=0;exitDy=0;" parent="1" source="-iXSCHGIiRlSGUEFT169-4" target="-iXSCHGIiRlSGUEFT169-29" edge="1">
          <mxGeometry relative="1" as="geometry" />
        </mxCell>
        <mxCell id="-iXSCHGIiRlSGUEFT169-70" style="rounded=0;orthogonalLoop=1;jettySize=auto;html=1;entryX=0;entryY=0;entryDx=0;entryDy=0;endArrow=none;endFill=0;exitX=1;exitY=1;exitDx=0;exitDy=0;" parent="1" source="-iXSCHGIiRlSGUEFT169-4" target="-iXSCHGIiRlSGUEFT169-30" edge="1">
          <mxGeometry relative="1" as="geometry" />
        </mxCell>
        <mxCell id="-iXSCHGIiRlSGUEFT169-108" style="edgeStyle=orthogonalEdgeStyle;rounded=0;orthogonalLoop=1;jettySize=auto;html=1;entryX=0;entryY=0.5;entryDx=0;entryDy=0;endArrow=none;endFill=0;" parent="1" source="-iXSCHGIiRlSGUEFT169-4" target="-iXSCHGIiRlSGUEFT169-107" edge="1">
          <mxGeometry relative="1" as="geometry" />
        </mxCell>
        <mxCell id="-iXSCHGIiRlSGUEFT169-114" style="edgeStyle=orthogonalEdgeStyle;rounded=0;orthogonalLoop=1;jettySize=auto;html=1;entryX=0.5;entryY=0;entryDx=0;entryDy=0;endArrow=none;endFill=0;" parent="1" source="-iXSCHGIiRlSGUEFT169-4" target="-iXSCHGIiRlSGUEFT169-113" edge="1">
          <mxGeometry relative="1" as="geometry" />
        </mxCell>
        <mxCell id="-iXSCHGIiRlSGUEFT169-4" value="&lt;font style=&quot;font-size: 16px;&quot;&gt;毕业学生&lt;/font&gt;" style="rounded=0;html=1;" parent="1" vertex="1">
          <mxGeometry x="320" y="1500" width="120" height="60" as="geometry" />
        </mxCell>
        <mxCell id="-iXSCHGIiRlSGUEFT169-63" style="rounded=0;orthogonalLoop=1;jettySize=auto;html=1;endArrow=none;endFill=0;entryX=1;entryY=0.5;entryDx=0;entryDy=0;exitX=0;exitY=0;exitDx=0;exitDy=0;" parent="1" source="-iXSCHGIiRlSGUEFT169-5" target="-iXSCHGIiRlSGUEFT169-23" edge="1">
          <mxGeometry relative="1" as="geometry">
            <mxPoint x="900" y="942" as="targetPoint" />
          </mxGeometry>
        </mxCell>
        <mxCell id="-iXSCHGIiRlSGUEFT169-64" style="rounded=0;orthogonalLoop=1;jettySize=auto;html=1;entryX=1;entryY=1;entryDx=0;entryDy=0;endArrow=none;endFill=0;" parent="1" source="-iXSCHGIiRlSGUEFT169-5" target="-iXSCHGIiRlSGUEFT169-24" edge="1">
          <mxGeometry relative="1" as="geometry" />
        </mxCell>
        <mxCell id="-iXSCHGIiRlSGUEFT169-65" style="rounded=0;orthogonalLoop=1;jettySize=auto;html=1;entryX=0;entryY=1;entryDx=0;entryDy=0;endArrow=none;endFill=0;" parent="1" source="-iXSCHGIiRlSGUEFT169-5" target="-iXSCHGIiRlSGUEFT169-25" edge="1">
          <mxGeometry relative="1" as="geometry" />
        </mxCell>
        <mxCell id="-iXSCHGIiRlSGUEFT169-66" style="rounded=0;orthogonalLoop=1;jettySize=auto;html=1;entryX=0;entryY=0.5;entryDx=0;entryDy=0;endArrow=none;endFill=0;exitX=1;exitY=0;exitDx=0;exitDy=0;" parent="1" source="-iXSCHGIiRlSGUEFT169-5" target="-iXSCHGIiRlSGUEFT169-26" edge="1">
          <mxGeometry relative="1" as="geometry" />
        </mxCell>
        <mxCell id="-iXSCHGIiRlSGUEFT169-105" style="edgeStyle=orthogonalEdgeStyle;rounded=0;orthogonalLoop=1;jettySize=auto;html=1;entryX=0.5;entryY=0;entryDx=0;entryDy=0;endArrow=none;endFill=0;" parent="1" source="-iXSCHGIiRlSGUEFT169-5" target="-iXSCHGIiRlSGUEFT169-104" edge="1">
          <mxGeometry relative="1" as="geometry" />
        </mxCell>
        <mxCell id="-iXSCHGIiRlSGUEFT169-111" style="edgeStyle=orthogonalEdgeStyle;rounded=0;orthogonalLoop=1;jettySize=auto;html=1;entryX=0;entryY=0.5;entryDx=0;entryDy=0;endArrow=none;endFill=0;" parent="1" source="-iXSCHGIiRlSGUEFT169-5" target="-iXSCHGIiRlSGUEFT169-110" edge="1">
          <mxGeometry relative="1" as="geometry" />
        </mxCell>
        <mxCell id="-iXSCHGIiRlSGUEFT169-5" value="&lt;font style=&quot;font-size: 16px;&quot;&gt;在籍学生&lt;/font&gt;" style="rounded=0;html=1;" parent="1" vertex="1">
          <mxGeometry x="970" y="980" width="120" height="60" as="geometry" />
        </mxCell>
        <mxCell id="-iXSCHGIiRlSGUEFT169-71" style="rounded=0;orthogonalLoop=1;jettySize=auto;html=1;entryX=0;entryY=1;entryDx=0;entryDy=0;endArrow=none;endFill=0;exitX=1;exitY=0;exitDx=0;exitDy=0;" parent="1" source="-iXSCHGIiRlSGUEFT169-6" target="-iXSCHGIiRlSGUEFT169-31" edge="1">
          <mxGeometry relative="1" as="geometry" />
        </mxCell>
        <mxCell id="-iXSCHGIiRlSGUEFT169-72" style="rounded=0;orthogonalLoop=1;jettySize=auto;html=1;entryX=1;entryY=1;entryDx=0;entryDy=0;endArrow=none;endFill=0;exitX=0;exitY=0;exitDx=0;exitDy=0;" parent="1" source="-iXSCHGIiRlSGUEFT169-6" target="-iXSCHGIiRlSGUEFT169-32" edge="1">
          <mxGeometry relative="1" as="geometry" />
        </mxCell>
        <mxCell id="-iXSCHGIiRlSGUEFT169-73" style="rounded=0;orthogonalLoop=1;jettySize=auto;html=1;entryX=1;entryY=0;entryDx=0;entryDy=0;endArrow=none;endFill=0;exitX=0;exitY=1;exitDx=0;exitDy=0;" parent="1" source="-iXSCHGIiRlSGUEFT169-6" target="-iXSCHGIiRlSGUEFT169-34" edge="1">
          <mxGeometry relative="1" as="geometry" />
        </mxCell>
        <mxCell id="-iXSCHGIiRlSGUEFT169-74" style="rounded=0;orthogonalLoop=1;jettySize=auto;html=1;entryX=0.5;entryY=0;entryDx=0;entryDy=0;endArrow=none;endFill=0;" parent="1" source="-iXSCHGIiRlSGUEFT169-6" target="-iXSCHGIiRlSGUEFT169-33" edge="1">
          <mxGeometry relative="1" as="geometry" />
        </mxCell>
        <mxCell id="-iXSCHGIiRlSGUEFT169-81" style="rounded=0;orthogonalLoop=1;jettySize=auto;html=1;entryX=0.11;entryY=0.194;entryDx=0;entryDy=0;endArrow=none;endFill=0;exitX=1;exitY=1;exitDx=0;exitDy=0;entryPerimeter=0;" parent="1" source="-iXSCHGIiRlSGUEFT169-6" target="-iXSCHGIiRlSGUEFT169-35" edge="1">
          <mxGeometry relative="1" as="geometry" />
        </mxCell>
        <mxCell id="-iXSCHGIiRlSGUEFT169-6" value="&lt;font style=&quot;font-size: 16px;&quot;&gt;课程&lt;/font&gt;" style="rounded=0;html=1;" parent="1" vertex="1">
          <mxGeometry x="970" y="1500" width="120" height="60" as="geometry" />
        </mxCell>
        <mxCell id="-iXSCHGIiRlSGUEFT169-75" style="rounded=0;orthogonalLoop=1;jettySize=auto;html=1;entryX=1;entryY=1;entryDx=0;entryDy=0;endArrow=none;endFill=0;exitX=0;exitY=0;exitDx=0;exitDy=0;" parent="1" source="-iXSCHGIiRlSGUEFT169-7" target="-iXSCHGIiRlSGUEFT169-36" edge="1">
          <mxGeometry relative="1" as="geometry" />
        </mxCell>
        <mxCell id="-iXSCHGIiRlSGUEFT169-76" style="rounded=0;orthogonalLoop=1;jettySize=auto;html=1;entryX=1;entryY=0;entryDx=0;entryDy=0;endArrow=none;endFill=0;" parent="1" source="-iXSCHGIiRlSGUEFT169-7" target="-iXSCHGIiRlSGUEFT169-38" edge="1">
          <mxGeometry relative="1" as="geometry" />
        </mxCell>
        <mxCell id="-iXSCHGIiRlSGUEFT169-77" style="rounded=0;orthogonalLoop=1;jettySize=auto;html=1;entryX=0;entryY=1;entryDx=0;entryDy=0;endArrow=none;endFill=0;" parent="1" source="-iXSCHGIiRlSGUEFT169-7" target="-iXSCHGIiRlSGUEFT169-39" edge="1">
          <mxGeometry relative="1" as="geometry" />
        </mxCell>
        <mxCell id="-iXSCHGIiRlSGUEFT169-78" style="rounded=0;orthogonalLoop=1;jettySize=auto;html=1;entryX=0;entryY=0;entryDx=0;entryDy=0;endArrow=none;endFill=0;exitX=1;exitY=1;exitDx=0;exitDy=0;" parent="1" source="-iXSCHGIiRlSGUEFT169-7" target="-iXSCHGIiRlSGUEFT169-40" edge="1">
          <mxGeometry relative="1" as="geometry" />
        </mxCell>
        <mxCell id="-iXSCHGIiRlSGUEFT169-120" style="edgeStyle=orthogonalEdgeStyle;rounded=0;orthogonalLoop=1;jettySize=auto;html=1;entryX=0;entryY=0.5;entryDx=0;entryDy=0;endArrow=none;endFill=0;" parent="1" source="-iXSCHGIiRlSGUEFT169-7" target="-iXSCHGIiRlSGUEFT169-119" edge="1">
          <mxGeometry relative="1" as="geometry" />
        </mxCell>
        <mxCell id="-iXSCHGIiRlSGUEFT169-124" style="edgeStyle=orthogonalEdgeStyle;rounded=0;orthogonalLoop=1;jettySize=auto;html=1;entryX=0.5;entryY=0;entryDx=0;entryDy=0;endArrow=none;endFill=0;" parent="1" source="-iXSCHGIiRlSGUEFT169-7" target="-iXSCHGIiRlSGUEFT169-123" edge="1">
          <mxGeometry relative="1" as="geometry" />
        </mxCell>
        <mxCell id="-iXSCHGIiRlSGUEFT169-171" style="rounded=0;orthogonalLoop=1;jettySize=auto;html=1;entryX=0.5;entryY=1;entryDx=0;entryDy=0;endArrow=none;endFill=0;" parent="1" source="-iXSCHGIiRlSGUEFT169-7" target="-iXSCHGIiRlSGUEFT169-170" edge="1">
          <mxGeometry relative="1" as="geometry" />
        </mxCell>
        <mxCell id="-iXSCHGIiRlSGUEFT169-7" value="&lt;font style=&quot;font-size: 16px;&quot;&gt;教师&lt;/font&gt;" style="rounded=0;html=1;" parent="1" vertex="1">
          <mxGeometry x="1140" y="180" width="120" height="60" as="geometry" />
        </mxCell>
        <mxCell id="-iXSCHGIiRlSGUEFT169-79" style="rounded=0;orthogonalLoop=1;jettySize=auto;html=1;entryX=0.5;entryY=0;entryDx=0;entryDy=0;endArrow=none;endFill=0;exitX=1;exitY=1;exitDx=0;exitDy=0;" parent="1" source="-iXSCHGIiRlSGUEFT169-8" target="-iXSCHGIiRlSGUEFT169-41" edge="1">
          <mxGeometry relative="1" as="geometry" />
        </mxCell>
        <mxCell id="-iXSCHGIiRlSGUEFT169-80" style="rounded=0;orthogonalLoop=1;jettySize=auto;html=1;entryX=0.5;entryY=0;entryDx=0;entryDy=0;endArrow=none;endFill=0;exitX=0;exitY=1;exitDx=0;exitDy=0;" parent="1" source="-iXSCHGIiRlSGUEFT169-8" target="-iXSCHGIiRlSGUEFT169-42" edge="1">
          <mxGeometry relative="1" as="geometry" />
        </mxCell>
        <mxCell id="-iXSCHGIiRlSGUEFT169-8" value="&lt;font style=&quot;font-size: 16px;&quot;&gt;在籍学生&lt;br&gt;账号信息&lt;br&gt;&lt;/font&gt;" style="rounded=0;html=1;" parent="1" vertex="1">
          <mxGeometry x="1600" y="980" width="120" height="60" as="geometry" />
        </mxCell>
        <mxCell id="-iXSCHGIiRlSGUEFT169-82" style="rounded=0;orthogonalLoop=1;jettySize=auto;html=1;entryX=1;entryY=1;entryDx=0;entryDy=0;endArrow=none;endFill=0;exitX=0;exitY=0;exitDx=0;exitDy=0;" parent="1" source="-iXSCHGIiRlSGUEFT169-9" target="-iXSCHGIiRlSGUEFT169-44" edge="1">
          <mxGeometry relative="1" as="geometry" />
        </mxCell>
        <mxCell id="-iXSCHGIiRlSGUEFT169-84" style="rounded=0;orthogonalLoop=1;jettySize=auto;html=1;entryX=1;entryY=0;entryDx=0;entryDy=0;endArrow=none;endFill=0;" parent="1" source="-iXSCHGIiRlSGUEFT169-9" target="-iXSCHGIiRlSGUEFT169-45" edge="1">
          <mxGeometry relative="1" as="geometry" />
        </mxCell>
        <mxCell id="-iXSCHGIiRlSGUEFT169-9" value="&lt;font style=&quot;font-size: 16px;&quot;&gt;毕业学生&lt;br&gt;账号信息&lt;br&gt;&lt;/font&gt;" style="rounded=0;html=1;" parent="1" vertex="1">
          <mxGeometry x="320" y="1940" width="120" height="60" as="geometry" />
        </mxCell>
        <mxCell id="-iXSCHGIiRlSGUEFT169-90" style="rounded=0;orthogonalLoop=1;jettySize=auto;html=1;entryX=1;entryY=1;entryDx=0;entryDy=0;endArrow=none;endFill=0;exitX=0;exitY=0;exitDx=0;exitDy=0;" parent="1" source="-iXSCHGIiRlSGUEFT169-10" target="-iXSCHGIiRlSGUEFT169-46" edge="1">
          <mxGeometry relative="1" as="geometry" />
        </mxCell>
        <mxCell id="-iXSCHGIiRlSGUEFT169-91" style="rounded=0;orthogonalLoop=1;jettySize=auto;html=1;entryX=1;entryY=0;entryDx=0;entryDy=0;endArrow=none;endFill=0;exitX=0;exitY=1;exitDx=0;exitDy=0;" parent="1" source="-iXSCHGIiRlSGUEFT169-10" target="-iXSCHGIiRlSGUEFT169-47" edge="1">
          <mxGeometry relative="1" as="geometry" />
        </mxCell>
        <mxCell id="-iXSCHGIiRlSGUEFT169-10" value="&lt;font style=&quot;font-size: 16px;&quot;&gt;教务人员&lt;br&gt;账号信息&lt;br&gt;&lt;/font&gt;" style="rounded=0;html=1;" parent="1" vertex="1">
          <mxGeometry x="1570" y="770" width="120" height="60" as="geometry" />
        </mxCell>
        <mxCell id="-iXSCHGIiRlSGUEFT169-12" value="&lt;font style=&quot;font-size: 16px;&quot;&gt;&lt;u&gt;学院编号&lt;/u&gt;&lt;/font&gt;" style="ellipse;html=1;" parent="1" vertex="1">
          <mxGeometry x="150" y="70" width="120" height="80" as="geometry" />
        </mxCell>
        <mxCell id="-iXSCHGIiRlSGUEFT169-13" value="&lt;font style=&quot;font-size: 16px;&quot;&gt;学院名称&lt;/font&gt;" style="ellipse;html=1;" parent="1" vertex="1">
          <mxGeometry x="320" y="30" width="120" height="80" as="geometry" />
        </mxCell>
        <mxCell id="-iXSCHGIiRlSGUEFT169-14" value="&lt;font style=&quot;font-size: 16px;&quot;&gt;学院简介&lt;/font&gt;" style="ellipse;html=1;" parent="1" vertex="1">
          <mxGeometry x="500" y="70" width="120" height="80" as="geometry" />
        </mxCell>
        <mxCell id="-iXSCHGIiRlSGUEFT169-15" value="&lt;font style=&quot;font-size: 16px;&quot;&gt;&lt;u&gt;专业编号&lt;/u&gt;&lt;/font&gt;" style="ellipse;html=1;" parent="1" vertex="1">
          <mxGeometry x="160" y="440" width="120" height="80" as="geometry" />
        </mxCell>
        <mxCell id="-iXSCHGIiRlSGUEFT169-16" value="&lt;font style=&quot;font-size: 16px;&quot;&gt;专业名称&lt;/font&gt;" style="ellipse;html=1;" parent="1" vertex="1">
          <mxGeometry x="80" y="550" width="120" height="80" as="geometry" />
        </mxCell>
        <mxCell id="-iXSCHGIiRlSGUEFT169-17" value="&lt;font style=&quot;font-size: 16px;&quot;&gt;专业简介&lt;/font&gt;" style="ellipse;html=1;" parent="1" vertex="1">
          <mxGeometry x="160" y="660" width="120" height="80" as="geometry" />
        </mxCell>
        <mxCell id="-iXSCHGIiRlSGUEFT169-19" value="&lt;font style=&quot;font-size: 16px;&quot;&gt;&lt;u&gt;班号&lt;/u&gt;&lt;/font&gt;" style="ellipse;html=1;" parent="1" vertex="1">
          <mxGeometry x="130" y="840" width="120" height="80" as="geometry" />
        </mxCell>
        <mxCell id="-iXSCHGIiRlSGUEFT169-20" value="&lt;font style=&quot;font-size: 16px;&quot;&gt;入学年份&lt;/font&gt;" style="ellipse;html=1;" parent="1" vertex="1">
          <mxGeometry x="20" y="971" width="120" height="80" as="geometry" />
        </mxCell>
        <mxCell id="-iXSCHGIiRlSGUEFT169-22" value="&lt;font style=&quot;font-size: 16px;&quot;&gt;班级人数&lt;/font&gt;" style="ellipse;html=1;" parent="1" vertex="1">
          <mxGeometry x="130" y="1089" width="120" height="80" as="geometry" />
        </mxCell>
        <mxCell id="-iXSCHGIiRlSGUEFT169-23" value="&lt;font style=&quot;font-size: 16px;&quot;&gt;&lt;u&gt;学号&lt;/u&gt;&lt;/font&gt;" style="ellipse;html=1;" parent="1" vertex="1">
          <mxGeometry x="780" y="891" width="120" height="80" as="geometry" />
        </mxCell>
        <mxCell id="-iXSCHGIiRlSGUEFT169-24" value="&lt;span style=&quot;font-size: 16px;&quot;&gt;姓名&lt;/span&gt;" style="ellipse;html=1;" parent="1" vertex="1">
          <mxGeometry x="880" y="780" width="120" height="80" as="geometry" />
        </mxCell>
        <mxCell id="-iXSCHGIiRlSGUEFT169-25" value="&lt;font style=&quot;font-size: 16px;&quot;&gt;性别&lt;/font&gt;" style="ellipse;html=1;" parent="1" vertex="1">
          <mxGeometry x="1080" y="780" width="120" height="80" as="geometry" />
        </mxCell>
        <mxCell id="-iXSCHGIiRlSGUEFT169-26" value="&lt;font style=&quot;font-size: 16px;&quot;&gt;政治面貌&lt;/font&gt;" style="ellipse;html=1;" parent="1" vertex="1">
          <mxGeometry x="1181" y="891" width="120" height="80" as="geometry" />
        </mxCell>
        <mxCell id="-iXSCHGIiRlSGUEFT169-27" value="&lt;font style=&quot;font-size: 16px;&quot;&gt;&lt;u&gt;学号&lt;/u&gt;&lt;/font&gt;" style="ellipse;html=1;" parent="1" vertex="1">
          <mxGeometry x="130" y="1400" width="120" height="80" as="geometry" />
        </mxCell>
        <mxCell id="-iXSCHGIiRlSGUEFT169-28" value="&lt;span style=&quot;font-size: 16px;&quot;&gt;姓名&lt;/span&gt;" style="ellipse;html=1;" parent="1" vertex="1">
          <mxGeometry x="130" y="1580" width="120" height="80" as="geometry" />
        </mxCell>
        <mxCell id="-iXSCHGIiRlSGUEFT169-29" value="&lt;font style=&quot;font-size: 16px;&quot;&gt;性别&lt;/font&gt;" style="ellipse;html=1;" parent="1" vertex="1">
          <mxGeometry x="520" y="1390" width="120" height="80" as="geometry" />
        </mxCell>
        <mxCell id="-iXSCHGIiRlSGUEFT169-30" value="&lt;font style=&quot;font-size: 16px;&quot;&gt;政治面貌&lt;/font&gt;" style="ellipse;html=1;" parent="1" vertex="1">
          <mxGeometry x="520" y="1580" width="120" height="80" as="geometry" />
        </mxCell>
        <mxCell id="-iXSCHGIiRlSGUEFT169-31" value="&lt;span style=&quot;font-size: 16px;&quot;&gt;&lt;u&gt;课号&lt;/u&gt;&lt;/span&gt;" style="ellipse;html=1;" parent="1" vertex="1">
          <mxGeometry x="1130" y="1390" width="120" height="80" as="geometry" />
        </mxCell>
        <mxCell id="-iXSCHGIiRlSGUEFT169-32" value="&lt;span style=&quot;font-size: 16px;&quot;&gt;课名&lt;/span&gt;" style="ellipse;html=1;" parent="1" vertex="1">
          <mxGeometry x="810" y="1390" width="120" height="80" as="geometry" />
        </mxCell>
        <mxCell id="-iXSCHGIiRlSGUEFT169-33" value="&lt;span style=&quot;font-size: 16px;&quot;&gt;学时&lt;/span&gt;" style="ellipse;html=1;" parent="1" vertex="1">
          <mxGeometry x="970" y="1660" width="120" height="80" as="geometry" />
        </mxCell>
        <mxCell id="-iXSCHGIiRlSGUEFT169-34" value="&lt;span style=&quot;font-size: 16px;&quot;&gt;学分&lt;/span&gt;" style="ellipse;html=1;" parent="1" vertex="1">
          <mxGeometry x="820" y="1570" width="120" height="80" as="geometry" />
        </mxCell>
        <mxCell id="-iXSCHGIiRlSGUEFT169-35" value="&lt;span style=&quot;font-size: 16px;&quot;&gt;先行课课号&lt;/span&gt;" style="ellipse;html=1;" parent="1" vertex="1">
          <mxGeometry x="1130" y="1570" width="120" height="80" as="geometry" />
        </mxCell>
        <mxCell id="-iXSCHGIiRlSGUEFT169-36" value="&lt;font style=&quot;font-size: 16px;&quot;&gt;&lt;u&gt;工号&lt;/u&gt;&lt;/font&gt;" style="ellipse;html=1;" parent="1" vertex="1">
          <mxGeometry x="960" y="70" width="120" height="80" as="geometry" />
        </mxCell>
        <mxCell id="-iXSCHGIiRlSGUEFT169-38" value="&lt;span style=&quot;font-size: 16px;&quot;&gt;姓名&lt;/span&gt;" style="ellipse;html=1;" parent="1" vertex="1">
          <mxGeometry x="960" y="270" width="120" height="80" as="geometry" />
        </mxCell>
        <mxCell id="-iXSCHGIiRlSGUEFT169-39" value="&lt;font style=&quot;font-size: 16px;&quot;&gt;性别&lt;/font&gt;" style="ellipse;html=1;" parent="1" vertex="1">
          <mxGeometry x="1320" y="70" width="120" height="80" as="geometry" />
        </mxCell>
        <mxCell id="-iXSCHGIiRlSGUEFT169-40" value="&lt;font style=&quot;font-size: 16px;&quot;&gt;职称&lt;/font&gt;" style="ellipse;html=1;" parent="1" vertex="1">
          <mxGeometry x="1320" y="280" width="120" height="80" as="geometry" />
        </mxCell>
        <mxCell id="-iXSCHGIiRlSGUEFT169-41" value="&lt;font style=&quot;font-size: 16px;&quot;&gt;&lt;u&gt;用户名&lt;/u&gt;&lt;/font&gt;" style="ellipse;html=1;" parent="1" vertex="1">
          <mxGeometry x="1720" y="1110" width="120" height="80" as="geometry" />
        </mxCell>
        <mxCell id="-iXSCHGIiRlSGUEFT169-42" value="&lt;font style=&quot;font-size: 16px;&quot;&gt;密码哈希&lt;/font&gt;" style="ellipse;html=1;" parent="1" vertex="1">
          <mxGeometry x="1490" y="1110" width="120" height="80" as="geometry" />
        </mxCell>
        <mxCell id="-iXSCHGIiRlSGUEFT169-44" value="&lt;font style=&quot;font-size: 16px;&quot;&gt;&lt;u&gt;用户名&lt;/u&gt;&lt;/font&gt;" style="ellipse;html=1;" parent="1" vertex="1">
          <mxGeometry x="160" y="1840" width="120" height="80" as="geometry" />
        </mxCell>
        <mxCell id="-iXSCHGIiRlSGUEFT169-45" value="&lt;font style=&quot;font-size: 16px;&quot;&gt;密码哈希&lt;/font&gt;" style="ellipse;html=1;" parent="1" vertex="1">
          <mxGeometry x="160" y="2020" width="120" height="80" as="geometry" />
        </mxCell>
        <mxCell id="-iXSCHGIiRlSGUEFT169-46" value="&lt;font style=&quot;font-size: 16px;&quot;&gt;&lt;u&gt;用户名&lt;/u&gt;&lt;/font&gt;" style="ellipse;html=1;" parent="1" vertex="1">
          <mxGeometry x="1380" y="670" width="120" height="80" as="geometry" />
        </mxCell>
        <mxCell id="-iXSCHGIiRlSGUEFT169-47" value="&lt;font style=&quot;font-size: 16px;&quot;&gt;密码哈希&lt;/font&gt;" style="ellipse;html=1;" parent="1" vertex="1">
          <mxGeometry x="1380" y="830" width="120" height="80" as="geometry" />
        </mxCell>
        <mxCell id="-iXSCHGIiRlSGUEFT169-85" style="rounded=0;orthogonalLoop=1;jettySize=auto;html=1;entryX=0;entryY=1;entryDx=0;entryDy=0;endArrow=none;endFill=0;exitX=1;exitY=0;exitDx=0;exitDy=0;" parent="1" source="-iXSCHGIiRlSGUEFT169-87" target="-iXSCHGIiRlSGUEFT169-88" edge="1">
          <mxGeometry relative="1" as="geometry" />
        </mxCell>
        <mxCell id="-iXSCHGIiRlSGUEFT169-86" style="rounded=0;orthogonalLoop=1;jettySize=auto;html=1;entryX=0;entryY=0;entryDx=0;entryDy=0;endArrow=none;endFill=0;exitX=1;exitY=1;exitDx=0;exitDy=0;" parent="1" source="-iXSCHGIiRlSGUEFT169-87" target="-iXSCHGIiRlSGUEFT169-89" edge="1">
          <mxGeometry relative="1" as="geometry" />
        </mxCell>
        <mxCell id="-iXSCHGIiRlSGUEFT169-87" value="&lt;font style=&quot;font-size: 16px;&quot;&gt;教师&lt;br style=&quot;border-color: var(--border-color);&quot;&gt;账号信息&lt;br&gt;&lt;/font&gt;" style="rounded=0;html=1;" parent="1" vertex="1">
          <mxGeometry x="1750" y="180" width="120" height="60" as="geometry" />
        </mxCell>
        <mxCell id="-iXSCHGIiRlSGUEFT169-88" value="&lt;font style=&quot;font-size: 16px;&quot;&gt;&lt;u&gt;用户名&lt;/u&gt;&lt;/font&gt;" style="ellipse;html=1;" parent="1" vertex="1">
          <mxGeometry x="1920" y="80" width="120" height="80" as="geometry" />
        </mxCell>
        <mxCell id="-iXSCHGIiRlSGUEFT169-89" value="&lt;font style=&quot;font-size: 16px;&quot;&gt;密码哈希&lt;/font&gt;" style="ellipse;html=1;" parent="1" vertex="1">
          <mxGeometry x="1920" y="270" width="120" height="80" as="geometry" />
        </mxCell>
        <mxCell id="-iXSCHGIiRlSGUEFT169-94" style="edgeStyle=orthogonalEdgeStyle;rounded=0;orthogonalLoop=1;jettySize=auto;html=1;entryX=0.5;entryY=0;entryDx=0;entryDy=0;endArrow=none;endFill=0;" parent="1" source="-iXSCHGIiRlSGUEFT169-92" target="-iXSCHGIiRlSGUEFT169-2" edge="1">
          <mxGeometry relative="1" as="geometry" />
        </mxCell>
        <mxCell id="-iXSCHGIiRlSGUEFT169-92" value="&lt;font style=&quot;font-size: 16px;&quot;&gt;拥有&lt;/font&gt;" style="rhombus;html=1;" parent="1" vertex="1">
          <mxGeometry x="320" y="350" width="120" height="80" as="geometry" />
        </mxCell>
        <mxCell id="-iXSCHGIiRlSGUEFT169-97" style="edgeStyle=orthogonalEdgeStyle;rounded=0;orthogonalLoop=1;jettySize=auto;html=1;entryX=0.5;entryY=0;entryDx=0;entryDy=0;endArrow=none;endFill=0;" parent="1" source="-iXSCHGIiRlSGUEFT169-95" target="-iXSCHGIiRlSGUEFT169-3" edge="1">
          <mxGeometry relative="1" as="geometry" />
        </mxCell>
        <mxCell id="-iXSCHGIiRlSGUEFT169-95" value="&lt;font style=&quot;font-size: 16px;&quot;&gt;拥有&lt;/font&gt;" style="rhombus;html=1;" parent="1" vertex="1">
          <mxGeometry x="320" y="750" width="120" height="80" as="geometry" />
        </mxCell>
        <mxCell id="-iXSCHGIiRlSGUEFT169-100" style="edgeStyle=orthogonalEdgeStyle;rounded=0;orthogonalLoop=1;jettySize=auto;html=1;entryX=0;entryY=0.5;entryDx=0;entryDy=0;endArrow=none;endFill=0;" parent="1" source="-iXSCHGIiRlSGUEFT169-98" target="-iXSCHGIiRlSGUEFT169-5" edge="1">
          <mxGeometry relative="1" as="geometry" />
        </mxCell>
        <mxCell id="-iXSCHGIiRlSGUEFT169-98" value="&lt;font style=&quot;font-size: 16px;&quot;&gt;拥有&lt;/font&gt;" style="rhombus;html=1;" parent="1" vertex="1">
          <mxGeometry x="630" y="970" width="120" height="80" as="geometry" />
        </mxCell>
        <mxCell id="-iXSCHGIiRlSGUEFT169-103" style="edgeStyle=orthogonalEdgeStyle;rounded=0;orthogonalLoop=1;jettySize=auto;html=1;entryX=0.5;entryY=0;entryDx=0;entryDy=0;endArrow=none;endFill=0;" parent="1" source="-iXSCHGIiRlSGUEFT169-101" target="-iXSCHGIiRlSGUEFT169-4" edge="1">
          <mxGeometry relative="1" as="geometry" />
        </mxCell>
        <mxCell id="-iXSCHGIiRlSGUEFT169-101" value="&lt;font style=&quot;font-size: 16px;&quot;&gt;拥有&lt;/font&gt;" style="rhombus;html=1;" parent="1" vertex="1">
          <mxGeometry x="320" y="1220" width="120" height="80" as="geometry" />
        </mxCell>
        <mxCell id="-iXSCHGIiRlSGUEFT169-106" style="edgeStyle=orthogonalEdgeStyle;rounded=0;orthogonalLoop=1;jettySize=auto;html=1;entryX=0.5;entryY=0;entryDx=0;entryDy=0;endArrow=none;endFill=0;" parent="1" source="-iXSCHGIiRlSGUEFT169-104" target="-iXSCHGIiRlSGUEFT169-6" edge="1">
          <mxGeometry relative="1" as="geometry" />
        </mxCell>
        <mxCell id="-iXSCHGIiRlSGUEFT169-141" style="rounded=0;orthogonalLoop=1;jettySize=auto;html=1;entryX=1;entryY=0.5;entryDx=0;entryDy=0;endArrow=none;endFill=0;exitX=0;exitY=0.5;exitDx=0;exitDy=0;" parent="1" source="-iXSCHGIiRlSGUEFT169-104" target="-iXSCHGIiRlSGUEFT169-139" edge="1">
          <mxGeometry relative="1" as="geometry" />
        </mxCell>
        <mxCell id="-iXSCHGIiRlSGUEFT169-143" style="rounded=0;orthogonalLoop=1;jettySize=auto;html=1;entryX=0;entryY=0.5;entryDx=0;entryDy=0;endArrow=none;endFill=0;exitX=1;exitY=0.5;exitDx=0;exitDy=0;" parent="1" source="-iXSCHGIiRlSGUEFT169-104" target="-iXSCHGIiRlSGUEFT169-140" edge="1">
          <mxGeometry relative="1" as="geometry" />
        </mxCell>
        <mxCell id="-iXSCHGIiRlSGUEFT169-104" value="&lt;font style=&quot;font-size: 16px;&quot;&gt;选修&lt;/font&gt;" style="rhombus;html=1;" parent="1" vertex="1">
          <mxGeometry x="970" y="1240" width="120" height="80" as="geometry" />
        </mxCell>
        <mxCell id="-iXSCHGIiRlSGUEFT169-109" style="edgeStyle=orthogonalEdgeStyle;rounded=0;orthogonalLoop=1;jettySize=auto;html=1;entryX=0;entryY=0.5;entryDx=0;entryDy=0;endArrow=none;endFill=0;" parent="1" source="-iXSCHGIiRlSGUEFT169-107" target="-iXSCHGIiRlSGUEFT169-6" edge="1">
          <mxGeometry relative="1" as="geometry" />
        </mxCell>
        <mxCell id="-iXSCHGIiRlSGUEFT169-130" style="rounded=0;orthogonalLoop=1;jettySize=auto;html=1;entryX=0.5;entryY=1;entryDx=0;entryDy=0;endArrow=none;endFill=0;" parent="1" source="-iXSCHGIiRlSGUEFT169-107" target="-iXSCHGIiRlSGUEFT169-129" edge="1">
          <mxGeometry relative="1" as="geometry" />
        </mxCell>
        <mxCell id="-iXSCHGIiRlSGUEFT169-132" style="rounded=0;orthogonalLoop=1;jettySize=auto;html=1;endArrow=none;endFill=0;" parent="1" source="-iXSCHGIiRlSGUEFT169-107" target="-iXSCHGIiRlSGUEFT169-131" edge="1">
          <mxGeometry relative="1" as="geometry" />
        </mxCell>
        <mxCell id="-iXSCHGIiRlSGUEFT169-107" value="&lt;font style=&quot;font-size: 16px;&quot;&gt;选修&lt;/font&gt;" style="rhombus;html=1;" parent="1" vertex="1">
          <mxGeometry x="660" y="1490" width="120" height="80" as="geometry" />
        </mxCell>
        <mxCell id="-iXSCHGIiRlSGUEFT169-112" style="edgeStyle=orthogonalEdgeStyle;rounded=0;orthogonalLoop=1;jettySize=auto;html=1;entryX=0;entryY=0.5;entryDx=0;entryDy=0;endArrow=none;endFill=0;" parent="1" source="-iXSCHGIiRlSGUEFT169-110" target="-iXSCHGIiRlSGUEFT169-8" edge="1">
          <mxGeometry relative="1" as="geometry" />
        </mxCell>
        <mxCell id="-iXSCHGIiRlSGUEFT169-110" value="&lt;font style=&quot;font-size: 16px;&quot;&gt;拥有&lt;/font&gt;" style="rhombus;html=1;" parent="1" vertex="1">
          <mxGeometry x="1300" y="970" width="120" height="80" as="geometry" />
        </mxCell>
        <mxCell id="-iXSCHGIiRlSGUEFT169-115" style="edgeStyle=orthogonalEdgeStyle;rounded=0;orthogonalLoop=1;jettySize=auto;html=1;entryX=0.5;entryY=0;entryDx=0;entryDy=0;endArrow=none;endFill=0;" parent="1" source="-iXSCHGIiRlSGUEFT169-113" target="-iXSCHGIiRlSGUEFT169-9" edge="1">
          <mxGeometry relative="1" as="geometry" />
        </mxCell>
        <mxCell id="-iXSCHGIiRlSGUEFT169-113" value="&lt;font style=&quot;font-size: 16px;&quot;&gt;拥有&lt;/font&gt;" style="rhombus;html=1;" parent="1" vertex="1">
          <mxGeometry x="320" y="1714" width="120" height="80" as="geometry" />
        </mxCell>
        <mxCell id="-iXSCHGIiRlSGUEFT169-118" style="edgeStyle=orthogonalEdgeStyle;rounded=0;orthogonalLoop=1;jettySize=auto;html=1;entryX=0;entryY=0.5;entryDx=0;entryDy=0;endArrow=none;endFill=0;" parent="1" source="-iXSCHGIiRlSGUEFT169-116" target="-iXSCHGIiRlSGUEFT169-7" edge="1">
          <mxGeometry relative="1" as="geometry" />
        </mxCell>
        <mxCell id="-iXSCHGIiRlSGUEFT169-116" value="&lt;font style=&quot;font-size: 16px;&quot;&gt;拥有&lt;/font&gt;" style="rhombus;html=1;" parent="1" vertex="1">
          <mxGeometry x="720" y="170" width="120" height="80" as="geometry" />
        </mxCell>
        <mxCell id="-iXSCHGIiRlSGUEFT169-121" style="edgeStyle=orthogonalEdgeStyle;rounded=0;orthogonalLoop=1;jettySize=auto;html=1;entryX=0;entryY=0.5;entryDx=0;entryDy=0;endArrow=none;endFill=0;" parent="1" source="-iXSCHGIiRlSGUEFT169-119" target="-iXSCHGIiRlSGUEFT169-87" edge="1">
          <mxGeometry relative="1" as="geometry" />
        </mxCell>
        <mxCell id="-iXSCHGIiRlSGUEFT169-119" value="&lt;font style=&quot;font-size: 16px;&quot;&gt;拥有&lt;/font&gt;" style="rhombus;html=1;" parent="1" vertex="1">
          <mxGeometry x="1470" y="170" width="120" height="80" as="geometry" />
        </mxCell>
        <mxCell id="-iXSCHGIiRlSGUEFT169-125" style="edgeStyle=orthogonalEdgeStyle;rounded=0;orthogonalLoop=1;jettySize=auto;html=1;endArrow=none;endFill=0;" parent="1" source="-iXSCHGIiRlSGUEFT169-123" edge="1">
          <mxGeometry relative="1" as="geometry">
            <mxPoint x="1090" y="1540" as="targetPoint" />
            <Array as="points">
              <mxPoint x="2040" y="510" />
              <mxPoint x="2040" y="1540" />
              <mxPoint x="1091" y="1540" />
            </Array>
          </mxGeometry>
        </mxCell>
        <mxCell id="-iXSCHGIiRlSGUEFT169-123" value="&lt;font style=&quot;font-size: 16px;&quot;&gt;教授&lt;/font&gt;" style="rhombus;html=1;" parent="1" vertex="1">
          <mxGeometry x="1140" y="470" width="120" height="80" as="geometry" />
        </mxCell>
        <mxCell id="-iXSCHGIiRlSGUEFT169-128" style="edgeStyle=orthogonalEdgeStyle;rounded=0;orthogonalLoop=1;jettySize=auto;html=1;entryX=1;entryY=0.385;entryDx=0;entryDy=0;endArrow=none;endFill=0;entryPerimeter=0;" parent="1" source="-iXSCHGIiRlSGUEFT169-126" target="-iXSCHGIiRlSGUEFT169-6" edge="1">
          <mxGeometry relative="1" as="geometry">
            <Array as="points">
              <mxPoint x="2000" y="590" />
              <mxPoint x="2000" y="1523" />
              <mxPoint x="1094" y="1523" />
            </Array>
          </mxGeometry>
        </mxCell>
        <mxCell id="-iXSCHGIiRlSGUEFT169-136" style="rounded=0;orthogonalLoop=1;jettySize=auto;html=1;exitX=0;exitY=0;exitDx=0;exitDy=0;entryX=1;entryY=1;entryDx=0;entryDy=0;endArrow=none;endFill=0;" parent="1" source="-iXSCHGIiRlSGUEFT169-126" target="-iXSCHGIiRlSGUEFT169-133" edge="1">
          <mxGeometry relative="1" as="geometry" />
        </mxCell>
        <mxCell id="-iXSCHGIiRlSGUEFT169-137" style="rounded=0;orthogonalLoop=1;jettySize=auto;html=1;exitX=1;exitY=0;exitDx=0;exitDy=0;entryX=0;entryY=1;entryDx=0;entryDy=0;endArrow=none;endFill=0;" parent="1" source="-iXSCHGIiRlSGUEFT169-126" target="-iXSCHGIiRlSGUEFT169-134" edge="1">
          <mxGeometry relative="1" as="geometry" />
        </mxCell>
        <mxCell id="-iXSCHGIiRlSGUEFT169-138" style="rounded=0;orthogonalLoop=1;jettySize=auto;html=1;exitX=0.5;exitY=0;exitDx=0;exitDy=0;entryX=0.5;entryY=1;entryDx=0;entryDy=0;endArrow=none;endFill=0;" parent="1" source="-iXSCHGIiRlSGUEFT169-126" target="-iXSCHGIiRlSGUEFT169-135" edge="1">
          <mxGeometry relative="1" as="geometry" />
        </mxCell>
        <mxCell id="-Ga1Wj4cZ6QucO6K7be4-2" style="rounded=0;orthogonalLoop=1;jettySize=auto;html=1;exitX=0;exitY=1;exitDx=0;exitDy=0;entryX=1;entryY=0;entryDx=0;entryDy=0;endArrow=none;endFill=0;" parent="1" source="-iXSCHGIiRlSGUEFT169-126" target="-Ga1Wj4cZ6QucO6K7be4-1" edge="1">
          <mxGeometry relative="1" as="geometry" />
        </mxCell>
        <mxCell id="-iXSCHGIiRlSGUEFT169-126" value="&lt;font style=&quot;font-size: 16px;&quot;&gt;课程计划&lt;/font&gt;" style="rhombus;html=1;" parent="1" vertex="1">
          <mxGeometry x="680" y="550" width="120" height="80" as="geometry" />
        </mxCell>
        <mxCell id="-iXSCHGIiRlSGUEFT169-129" value="&lt;font style=&quot;font-size: 16px;&quot;&gt;分数&lt;/font&gt;" style="ellipse;html=1;" parent="1" vertex="1">
          <mxGeometry x="660" y="1310" width="120" height="80" as="geometry" />
        </mxCell>
        <mxCell id="-iXSCHGIiRlSGUEFT169-131" value="&lt;span style=&quot;font-size: 16px;&quot;&gt;绩点&lt;/span&gt;" style="ellipse;html=1;" parent="1" vertex="1">
          <mxGeometry x="660" y="1674" width="120" height="80" as="geometry" />
        </mxCell>
        <mxCell id="-iXSCHGIiRlSGUEFT169-133" value="&lt;font style=&quot;font-size: 16px;&quot;&gt;课程ID&lt;/font&gt;" style="ellipse;html=1;" parent="1" vertex="1">
          <mxGeometry x="530" y="480" width="120" height="80" as="geometry" />
        </mxCell>
        <mxCell id="-iXSCHGIiRlSGUEFT169-134" value="&lt;font style=&quot;font-size: 16px;&quot;&gt;年份&lt;/font&gt;" style="ellipse;html=1;" parent="1" vertex="1">
          <mxGeometry x="827" y="480" width="120" height="80" as="geometry" />
        </mxCell>
        <mxCell id="-iXSCHGIiRlSGUEFT169-135" value="&lt;font style=&quot;font-size: 16px;&quot;&gt;学期&lt;/font&gt;" style="ellipse;html=1;" parent="1" vertex="1">
          <mxGeometry x="680" y="400" width="120" height="80" as="geometry" />
        </mxCell>
        <mxCell id="-iXSCHGIiRlSGUEFT169-139" value="&lt;font style=&quot;font-size: 16px;&quot;&gt;分数&lt;/font&gt;" style="ellipse;html=1;" parent="1" vertex="1">
          <mxGeometry x="770" y="1240" width="120" height="80" as="geometry" />
        </mxCell>
        <mxCell id="-iXSCHGIiRlSGUEFT169-140" value="&lt;span style=&quot;font-size: 16px;&quot;&gt;绩点&lt;/span&gt;" style="ellipse;html=1;" parent="1" vertex="1">
          <mxGeometry x="1170" y="1240" width="120" height="80" as="geometry" />
        </mxCell>
        <mxCell id="-iXSCHGIiRlSGUEFT169-146" value="&lt;font style=&quot;font-size: 16px;&quot;&gt;1&lt;/font&gt;" style="text;html=1;strokeColor=none;fillColor=none;align=center;verticalAlign=middle;rounded=0;" parent="1" vertex="1">
          <mxGeometry x="370" y="295" width="60" height="30" as="geometry" />
        </mxCell>
        <mxCell id="-iXSCHGIiRlSGUEFT169-147" value="&lt;font style=&quot;font-size: 16px;&quot;&gt;n&lt;/font&gt;" style="text;html=1;strokeColor=none;fillColor=none;align=center;verticalAlign=middle;rounded=0;" parent="1" vertex="1">
          <mxGeometry x="370" y="490" width="60" height="30" as="geometry" />
        </mxCell>
        <mxCell id="-iXSCHGIiRlSGUEFT169-148" value="&lt;font style=&quot;font-size: 16px;&quot;&gt;1&lt;/font&gt;" style="text;html=1;strokeColor=none;fillColor=none;align=center;verticalAlign=middle;rounded=0;" parent="1" vertex="1">
          <mxGeometry x="370" y="677.5" width="60" height="30" as="geometry" />
        </mxCell>
        <mxCell id="-iXSCHGIiRlSGUEFT169-149" value="&lt;font style=&quot;font-size: 16px;&quot;&gt;n&lt;/font&gt;" style="text;html=1;strokeColor=none;fillColor=none;align=center;verticalAlign=middle;rounded=0;" parent="1" vertex="1">
          <mxGeometry x="370" y="890" width="60" height="30" as="geometry" />
        </mxCell>
        <mxCell id="-iXSCHGIiRlSGUEFT169-150" value="&lt;font style=&quot;font-size: 16px;&quot;&gt;1&lt;/font&gt;" style="text;html=1;strokeColor=none;fillColor=none;align=center;verticalAlign=middle;rounded=0;" parent="1" vertex="1">
          <mxGeometry x="370" y="1130" width="60" height="30" as="geometry" />
        </mxCell>
        <mxCell id="-iXSCHGIiRlSGUEFT169-151" value="&lt;font style=&quot;font-size: 16px;&quot;&gt;n&lt;/font&gt;" style="text;html=1;strokeColor=none;fillColor=none;align=center;verticalAlign=middle;rounded=0;" parent="1" vertex="1">
          <mxGeometry x="370" y="1370" width="60" height="30" as="geometry" />
        </mxCell>
        <mxCell id="-iXSCHGIiRlSGUEFT169-152" value="&lt;font style=&quot;font-size: 16px;&quot;&gt;1&lt;/font&gt;" style="text;html=1;strokeColor=none;fillColor=none;align=center;verticalAlign=middle;rounded=0;" parent="1" vertex="1">
          <mxGeometry x="510" y="1021" width="60" height="30" as="geometry" />
        </mxCell>
        <mxCell id="-iXSCHGIiRlSGUEFT169-153" value="&lt;font style=&quot;font-size: 16px;&quot;&gt;n&lt;/font&gt;" style="text;html=1;strokeColor=none;fillColor=none;align=center;verticalAlign=middle;rounded=0;" parent="1" vertex="1">
          <mxGeometry x="810" y="1021" width="60" height="30" as="geometry" />
        </mxCell>
        <mxCell id="-iXSCHGIiRlSGUEFT169-154" value="&lt;font style=&quot;font-size: 16px;&quot;&gt;1&lt;/font&gt;" style="text;html=1;strokeColor=none;fillColor=none;align=center;verticalAlign=middle;rounded=0;" parent="1" vertex="1">
          <mxGeometry x="570" y="180" width="60" height="30" as="geometry" />
        </mxCell>
        <mxCell id="-iXSCHGIiRlSGUEFT169-155" value="&lt;font style=&quot;font-size: 16px;&quot;&gt;n&lt;/font&gt;" style="text;html=1;strokeColor=none;fillColor=none;align=center;verticalAlign=middle;rounded=0;" parent="1" vertex="1">
          <mxGeometry x="960" y="180" width="60" height="30" as="geometry" />
        </mxCell>
        <mxCell id="-iXSCHGIiRlSGUEFT169-156" value="&lt;font style=&quot;font-size: 16px;&quot;&gt;1&lt;/font&gt;" style="text;html=1;strokeColor=none;fillColor=none;align=center;verticalAlign=middle;rounded=0;" parent="1" vertex="1">
          <mxGeometry x="1360" y="180" width="60" height="30" as="geometry" />
        </mxCell>
        <mxCell id="-iXSCHGIiRlSGUEFT169-157" value="&lt;font style=&quot;font-size: 16px;&quot;&gt;1&lt;/font&gt;" style="text;html=1;strokeColor=none;fillColor=none;align=center;verticalAlign=middle;rounded=0;" parent="1" vertex="1">
          <mxGeometry x="1640" y="180" width="60" height="30" as="geometry" />
        </mxCell>
        <mxCell id="-iXSCHGIiRlSGUEFT169-158" value="&lt;font style=&quot;font-size: 16px;&quot;&gt;n&lt;/font&gt;" style="text;html=1;strokeColor=none;fillColor=none;align=center;verticalAlign=middle;rounded=0;" parent="1" vertex="1">
          <mxGeometry x="800" y="1500" width="60" height="30" as="geometry" />
        </mxCell>
        <mxCell id="-iXSCHGIiRlSGUEFT169-159" value="&lt;font style=&quot;font-size: 16px;&quot;&gt;m&lt;/font&gt;" style="text;html=1;strokeColor=none;fillColor=none;align=center;verticalAlign=middle;rounded=0;" parent="1" vertex="1">
          <mxGeometry x="570" y="1500" width="60" height="30" as="geometry" />
        </mxCell>
        <mxCell id="-iXSCHGIiRlSGUEFT169-160" value="&lt;font style=&quot;font-size: 16px;&quot;&gt;1&lt;/font&gt;" style="text;html=1;strokeColor=none;fillColor=none;align=center;verticalAlign=middle;rounded=0;" parent="1" vertex="1">
          <mxGeometry x="370" y="1650" width="60" height="30" as="geometry" />
        </mxCell>
        <mxCell id="-iXSCHGIiRlSGUEFT169-161" value="&lt;font style=&quot;font-size: 16px;&quot;&gt;1&lt;/font&gt;" style="text;html=1;strokeColor=none;fillColor=none;align=center;verticalAlign=middle;rounded=0;" parent="1" vertex="1">
          <mxGeometry x="370" y="1830" width="60" height="30" as="geometry" />
        </mxCell>
        <mxCell id="-iXSCHGIiRlSGUEFT169-162" value="&lt;font style=&quot;font-size: 16px;&quot;&gt;m&lt;/font&gt;" style="text;html=1;strokeColor=none;fillColor=none;align=center;verticalAlign=middle;rounded=0;" parent="1" vertex="1">
          <mxGeometry x="1020" y="1150" width="60" height="30" as="geometry" />
        </mxCell>
        <mxCell id="-iXSCHGIiRlSGUEFT169-163" value="&lt;font style=&quot;font-size: 16px;&quot;&gt;n&lt;/font&gt;" style="text;html=1;strokeColor=none;fillColor=none;align=center;verticalAlign=middle;rounded=0;" parent="1" vertex="1">
          <mxGeometry x="1020" y="1380" width="60" height="30" as="geometry" />
        </mxCell>
        <mxCell id="-iXSCHGIiRlSGUEFT169-164" value="&lt;font style=&quot;font-size: 16px;&quot;&gt;n&lt;/font&gt;" style="text;html=1;strokeColor=none;fillColor=none;align=center;verticalAlign=middle;rounded=0;" parent="1" vertex="1">
          <mxGeometry x="1330" y="480" width="60" height="30" as="geometry" />
        </mxCell>
        <mxCell id="-iXSCHGIiRlSGUEFT169-165" value="&lt;font style=&quot;font-size: 16px;&quot;&gt;m&lt;/font&gt;" style="text;html=1;strokeColor=none;fillColor=none;align=center;verticalAlign=middle;rounded=0;" parent="1" vertex="1">
          <mxGeometry x="1190" y="375" width="60" height="30" as="geometry" />
        </mxCell>
        <mxCell id="-iXSCHGIiRlSGUEFT169-166" value="&lt;font style=&quot;font-size: 16px;&quot;&gt;m&lt;/font&gt;" style="text;html=1;strokeColor=none;fillColor=none;align=center;verticalAlign=middle;rounded=0;" parent="1" vertex="1">
          <mxGeometry x="500" y="560" width="60" height="30" as="geometry" />
        </mxCell>
        <mxCell id="-iXSCHGIiRlSGUEFT169-167" value="&lt;font style=&quot;font-size: 16px;&quot;&gt;n&lt;/font&gt;" style="text;html=1;strokeColor=none;fillColor=none;align=center;verticalAlign=middle;rounded=0;" parent="1" vertex="1">
          <mxGeometry x="970" y="560" width="60" height="30" as="geometry" />
        </mxCell>
        <mxCell id="-iXSCHGIiRlSGUEFT169-168" value="&lt;font style=&quot;font-size: 16px;&quot;&gt;1&lt;/font&gt;" style="text;html=1;strokeColor=none;fillColor=none;align=center;verticalAlign=middle;rounded=0;" parent="1" vertex="1">
          <mxGeometry x="1190" y="1020" width="60" height="30" as="geometry" />
        </mxCell>
        <mxCell id="-iXSCHGIiRlSGUEFT169-169" value="&lt;font style=&quot;font-size: 16px;&quot;&gt;1&lt;/font&gt;" style="text;html=1;strokeColor=none;fillColor=none;align=center;verticalAlign=middle;rounded=0;" parent="1" vertex="1">
          <mxGeometry x="1460" y="1020" width="60" height="30" as="geometry" />
        </mxCell>
        <mxCell id="-iXSCHGIiRlSGUEFT169-170" value="&lt;font style=&quot;font-size: 16px;&quot;&gt;专业编号&lt;/font&gt;" style="ellipse;html=1;" parent="1" vertex="1">
          <mxGeometry x="1140" y="20" width="120" height="80" as="geometry" />
        </mxCell>
        <mxCell id="-Ga1Wj4cZ6QucO6K7be4-1" value="&lt;font style=&quot;font-size: 16px;&quot;&gt;入学年份&lt;/font&gt;" style="ellipse;html=1;" parent="1" vertex="1">
          <mxGeometry x="550" y="640" width="120" height="80" as="geometry" />
        </mxCell>
        <mxCell id="AFXOpCJbTRXEaFPnQrDW-3" style="edgeStyle=orthogonalEdgeStyle;rounded=0;orthogonalLoop=1;jettySize=auto;html=1;entryX=1.004;entryY=0.819;entryDx=0;entryDy=0;entryPerimeter=0;endArrow=none;endFill=0;" parent="1" source="AFXOpCJbTRXEaFPnQrDW-1" target="-iXSCHGIiRlSGUEFT169-6" edge="1">
          <mxGeometry relative="1" as="geometry">
            <mxPoint x="1320" y="1550" as="targetPoint" />
            <Array as="points">
              <mxPoint x="-40" y="210" />
              <mxPoint x="-40" y="2140" />
              <mxPoint x="1340" y="2140" />
              <mxPoint x="1340" y="1549" />
            </Array>
          </mxGeometry>
        </mxCell>
        <mxCell id="AFXOpCJbTRXEaFPnQrDW-1" value="&lt;font style=&quot;font-size: 16px;&quot;&gt;开设&lt;/font&gt;" style="rhombus;html=1;" parent="1" vertex="1">
          <mxGeometry x="30" y="170" width="120" height="80" as="geometry" />
        </mxCell>
        <mxCell id="AFXOpCJbTRXEaFPnQrDW-4" value="&lt;font style=&quot;font-size: 16px;&quot;&gt;1&lt;/font&gt;" style="text;html=1;strokeColor=none;fillColor=none;align=center;verticalAlign=middle;rounded=0;" parent="1" vertex="1">
          <mxGeometry x="160" y="180" width="60" height="30" as="geometry" />
        </mxCell>
        <mxCell id="AFXOpCJbTRXEaFPnQrDW-5" value="&lt;font style=&quot;font-size: 16px;&quot;&gt;n&lt;/font&gt;" style="text;html=1;strokeColor=none;fillColor=none;align=center;verticalAlign=middle;rounded=0;" parent="1" vertex="1">
          <mxGeometry x="-30" y="180" width="60" height="30" as="geometry" />
        </mxCell>
      </root>
    </mxGraphModel>
  </diagram>
</mxfile>
